# xmcd CD database file
# Copyright (C) 1993-1998 Ti Kan
#
# Track frame offsets:
#  182
#  20015
#  39927
#  58062
#  77427
#  97420
#  114902
#  135835
#  152497
#  170752
#  193152
#  210950
#  233607
#  251625
#
# Disc length: 3662 seconds
#
# Revision: 1
# Processed by: cddbd v1.4b41PL1 Copyright (c) Steve Scherf et al.
# Submitted via: CDWizzard Release:4.35
#
DISCID=ae0e4c0e
DTITLE=The Corrs - Talk On Corners
DYEAR=1900
DGENRE=
TTITLE0=Only When I Sleep
TTITLE1=When He's Not Around
TTITLE2=Dreams
TTITLE3=What Can I Do
TTITLE4=I Never Loved You Anyway
TTITLE5=So Young
TTITLE6=Don't Say You Love Me
TTITLE7=Love Gives Love Takes
TTITLE8=Hopelessly Addicted
TTITLE9=Paddy McCarthy
TTITLE10=Intimacy
TTITLE11=Queen Of Hollywood
TTITLE12=No Good For Me
TTITLE13=Little Wing
EXTD=Brought to you by:\n\nJustin M. Evans\nEvans WebDesigns\nevanswebdes
EXTD=igns@biogate.com\nAIM: evanswebs
EXTT0=
EXTT1=
EXTT2=
EXTT3=
EXTT4=
EXTT5=
EXTT6=
EXTT7=
EXTT8=
EXTT9=
EXTT10=
EXTT11=
EXTT12=
EXTT13=
PLAYORDER=
